<svg width="98" height="98" viewBox="0 0 98 98" fill="none" xmlns="http://www.w3.org/2000/svg">
<path d="M50.5313 42.875H61.25V36.75H55.125V33.6875H49V36.9031C47.1393 37.281 45.4854 38.3367 44.3593 39.8654C43.2332 41.3941 42.7153 43.2866 42.9061 45.1757C43.0969 47.0648 43.9828 48.8155 45.3919 50.0882C46.8009 51.3608 48.6326 52.0644 50.5313 52.0625H53.5938C53.9999 52.0625 54.3894 52.2238 54.6765 52.511C54.9637 52.7982 55.125 53.1876 55.125 53.5938C55.125 53.9999 54.9637 54.3893 54.6765 54.6765C54.3894 54.9637 53.9999 55.125 53.5938 55.125H42.875V61.25H49V64.3125H55.125V61.0969C56.9857 60.719 58.6397 59.6633 59.7658 58.1346C60.8919 56.6059 61.4098 54.7134 61.219 52.8243C61.0281 50.9352 60.1422 49.1845 58.7332 47.9119C57.3241 46.6392 55.4924 45.9356 53.5938 45.9375H50.5313C50.1252 45.9375 49.7357 45.7762 49.4485 45.489C49.1613 45.2018 49 44.8124 49 44.4062C49 44.0001 49.1613 43.6107 49.4485 43.3235C49.7357 43.0363 50.1252 42.875 50.5313 42.875Z" fill="#4A1F94"/>
<path d="M88.8125 39.8125H82.6263C82.538 37.3929 81.9544 35.0172 80.9114 32.8322C79.8684 30.6472 78.3883 28.6994 76.5625 27.1093V15.3125C76.5625 14.7438 76.4041 14.1863 76.1051 13.7024C75.8061 13.2186 75.3783 12.8277 74.8696 12.5733C74.3609 12.319 73.7914 12.2113 73.225 12.2624C72.6585 12.3135 72.1175 12.5213 71.6625 12.8625L60.2302 21.4375H45.9375C29.0631 21.4375 16.9571 31.3631 15.4718 45.9375H15.3125C14.5003 45.9375 13.7213 45.6148 13.147 45.0405C12.5727 44.4662 12.25 43.6872 12.25 42.875V36.75H6.125V42.875C6.12743 45.3109 7.09618 47.6464 8.81864 49.3689C10.5411 51.0913 12.8766 52.0601 15.3125 52.0625H15.5269C15.9704 56.0784 17.2753 59.9513 19.3524 63.4169C21.4295 66.8824 24.2299 69.859 27.5625 72.1433V82.6875C27.5625 83.4997 27.8852 84.2787 28.4595 84.853C29.0338 85.4273 29.8128 85.75 30.625 85.75H42.875C43.6872 85.75 44.4662 85.4273 45.0405 84.853C45.6148 84.2787 45.9375 83.4997 45.9375 82.6875V76.5625H55.125V82.6875C55.125 83.4997 55.4477 84.2787 56.022 84.853C56.5963 85.4273 57.3753 85.75 58.1875 85.75H70.4375C71.2497 85.75 72.0287 85.4273 72.603 84.853C73.1773 84.2787 73.5 83.4997 73.5 82.6875V72.3883C75.7112 71.3381 77.6446 69.7829 79.1442 67.8482C80.6438 65.9134 81.6677 63.6532 82.1332 61.25H88.8125C89.6247 61.25 90.4037 60.9273 90.978 60.353C91.5523 59.7787 91.875 58.9997 91.875 58.1875V42.875C91.875 42.0628 91.5523 41.2838 90.978 40.7095C90.4037 40.1352 89.6247 39.8125 88.8125 39.8125ZM85.75 55.125H76.9423C76.0082 63.5561 74.4218 65.7978 67.375 68.3397V79.625H61.25V70.4375H39.8125V79.625H33.6875V68.5326C29.9992 66.7792 26.8876 64.0101 24.7179 60.5504C22.5481 57.0906 21.4101 53.0838 21.4375 49C21.4375 34.1928 33.7426 27.5625 45.9375 27.5625H62.2729L70.4375 21.4375V29.939C77.8426 35.6353 76.2961 39.6961 76.6176 45.9375H85.75V55.125Z" fill="#4A1F94"/>
</svg>
