<svg width="92" height="92" viewBox="0 0 92 92" fill="none" xmlns="http://www.w3.org/2000/svg">
<path d="M76.4009 68.149C76.4086 68.8722 76.222 69.8178 76.0278 70.5972C74.6708 76.0789 68.6448 82.2301 60.1629 81.6704C52.4758 81.1644 46.2147 77.4742 46.2147 72.2992C46.2147 67.1242 52.4604 62.928 60.1629 62.928C67.8653 62.928 76.3523 62.974 76.4009 68.149Z" fill="#EA596E"/>
<path d="M60.1629 63.7969C56.0255 63.7969 46.5827 64.9418 44.4156 64.9418C40.5874 64.9418 37.4824 67.344 37.4824 70.3084C37.4824 71.7344 38.2133 73.0224 39.3837 73.9833C39.3837 73.9833 41.9546 76.5619 46.5853 75.325C48.6118 74.7832 51.9085 70.7608 57.7121 70.1219C60.6025 69.8024 66.0177 72.0385 75.5346 72.0922C75.9435 71.2131 76.0278 70.6023 76.0278 70.6023C76.0278 65.4222 67.8654 63.7969 60.1629 63.7969Z" fill="#DD2E44"/>
<path d="M76.0278 70.5972C76.0278 70.5972 81.6091 69.4651 85.0795 64.9009C89.125 59.5777 88.5934 53.8813 88.5934 53.8813C92.6925 46.2147 87.3157 39.0259 87.3157 39.0259C86.7815 30.9324 81.7778 27.5795 81.7778 27.5795C78.5297 19.8592 71.3434 17.7841 71.3434 17.7841C65.7008 11.1831 55.6907 11.3952 55.6907 11.3952C55.6907 11.3952 46.3118 7.95799 33.4369 11.822C31.3081 12.4609 24.173 13.9508 18.9545 17.1452C2.50698 27.2141 1.26242 42.9154 1.49242 45.4684C2.76765 59.7361 12.7778 62.2917 19.1666 63.7815C20.6565 67.827 26.1408 75.2815 35.9899 72.5139C48.1288 70.3851 53.2399 66.7639 56.2222 66.7639C59.2045 66.7639 67.5101 69.9583 76.0278 70.5972Z" fill="#F4ABBA"/>
<path d="M45.3279 47.656C51.2772 44.4488 54.5023 44.7477 57.3492 45.0059C58.2539 45.0876 59.11 45.1515 59.9763 45.1464C65.0466 45.0314 69.1533 42.895 70.9703 40.8275C71.1787 40.5706 71.2795 40.243 71.2517 39.9134C71.2239 39.5838 71.0696 39.2778 70.8212 39.0594C70.5728 38.841 70.2494 38.7273 69.919 38.742C69.5886 38.7567 69.2766 38.8987 69.0486 39.1383C67.6481 40.733 64.1956 42.4938 59.9176 42.5909C59.1509 42.6139 58.3817 42.5372 57.5843 42.4631C54.5305 42.1794 50.738 41.8319 44.114 45.4071C42.4146 46.3245 40.0839 46.6644 37.559 46.92C31.9444 38.8163 35.3229 31.7579 36.2889 30.0763C36.3834 30.0814 36.4754 30.1121 36.5726 30.1121C37.5948 30.1121 38.6221 29.8616 39.5523 29.3352C39.8357 29.1627 40.0409 28.8867 40.1245 28.5656C40.208 28.2445 40.1634 27.9036 40.0001 27.6148C39.8368 27.326 39.5676 27.112 39.2494 27.0182C38.9311 26.9243 38.5889 26.9579 38.295 27.1119C37.491 27.5544 36.5497 27.6774 35.659 27.4561C34.7684 27.2349 33.994 26.6858 33.4906 25.9184C33.3005 25.6504 33.0146 25.466 32.6921 25.4033C32.3696 25.3406 32.0354 25.4045 31.7588 25.5818C31.4822 25.759 31.2845 26.036 31.2068 26.3552C31.129 26.6744 31.1772 27.0113 31.3413 27.2959C31.947 28.244 32.8006 28.957 33.764 29.4349C32.4326 32.1386 29.9051 39.2482 34.7147 47.1985C31.3311 47.5308 27.9424 48.0086 25.2898 49.7183C23.426 50.9407 21.7998 52.4915 20.4904 54.2953C18.883 54.0193 12.9976 52.5703 11.9702 46.0383C12.6091 45.5425 13.1253 44.8883 13.4448 44.0808C13.5065 43.9247 13.5369 43.758 13.5343 43.5902C13.5316 43.4224 13.4959 43.2568 13.4292 43.1027C13.3625 42.9487 13.2662 42.8094 13.1456 42.6926C13.0251 42.5758 12.8827 42.4839 12.7267 42.4222C12.5706 42.3604 12.4039 42.33 12.2361 42.3327C12.0683 42.3354 11.9027 42.3711 11.7487 42.4378C11.5947 42.5044 11.4553 42.6008 11.3385 42.7213C11.2217 42.8419 11.1299 42.9843 11.0681 43.1403C10.9718 43.4091 10.8181 43.6537 10.6178 43.8571C10.4174 44.0606 10.1752 44.218 9.90789 44.3184C9.63714 44.4079 9.35034 44.4382 9.06687 44.4073C8.78339 44.3765 8.50984 44.2851 8.26467 44.1395C8.11801 44.058 7.95673 44.0061 7.79003 43.9869C7.62333 43.9677 7.45447 43.9815 7.2931 44.0275C6.96721 44.1205 6.69159 44.3391 6.52689 44.6353C6.36219 44.9315 6.3219 45.281 6.41488 45.6069C6.50785 45.9328 6.72648 46.2084 7.02267 46.3731C7.74845 46.7769 8.52534 46.9813 9.29712 46.9813C9.39167 46.9813 9.48112 46.9379 9.57567 46.9327C10.7921 53.0993 15.6656 55.8082 19.113 56.6285C18.6621 57.5893 18.3761 58.6191 18.2671 59.6747C18.2373 60.0123 18.3428 60.3478 18.5604 60.6076C18.778 60.8673 19.0898 61.03 19.4273 61.0599L19.5423 61.065C19.8617 61.0649 20.1695 60.9453 20.4051 60.7296C20.6407 60.5139 20.7869 60.2178 20.815 59.8996C21.091 56.7997 24.0478 53.5619 26.6749 51.8624C29.1384 50.2754 32.7443 49.9406 36.2352 49.6161C39.6213 49.3069 42.8209 49.0104 45.3279 47.656ZM78.2077 43.8124C78.045 44.11 78.0072 44.4599 78.1026 44.7854C78.1979 45.1108 78.4187 45.385 78.7162 45.5476C79.0138 45.7103 79.3637 45.7481 79.6892 45.6527C80.0146 45.5574 80.2888 45.3366 80.4515 45.0391C80.5 44.9522 85.1588 36.225 76.4367 30.36C76.1554 30.1709 75.8105 30.1013 75.4779 30.1664C75.1453 30.2316 74.8522 30.4262 74.6631 30.7075C74.474 30.9888 74.4044 31.3337 74.4696 31.6663C74.5348 31.9989 74.7294 32.292 75.0107 32.4811C81.7676 37.0249 78.3559 43.5364 78.2077 43.8124ZM25.2387 23.1789C25.4414 23.1789 25.6412 23.1307 25.8216 23.0383C26.002 22.9459 26.1578 22.8119 26.2762 22.6473C29.9818 17.4927 35.1133 19.2561 35.3306 19.3379C35.6453 19.4417 35.9881 19.4193 36.2866 19.2752C36.5851 19.1311 36.8159 18.8766 36.9303 18.5656C37.0447 18.2545 37.0338 17.9111 36.8998 17.608C36.7658 17.3048 36.5193 17.0656 36.2122 16.9407C33.7589 16.031 28.0932 15.7447 24.2011 21.1574C24.0645 21.3483 23.9831 21.5732 23.9659 21.8073C23.9486 22.0414 23.9962 22.2757 24.1034 22.4846C24.2106 22.6934 24.3733 22.8687 24.5735 22.9912C24.7738 23.1136 25.0039 23.1786 25.2387 23.1789ZM58.6449 18.354C64.331 17.8914 66.9172 22.0135 67.0348 22.2077C67.2066 22.5002 67.4876 22.7124 67.8158 22.7977C67.9784 22.84 68.1477 22.8498 68.314 22.8266C68.4804 22.8034 68.6405 22.7477 68.7853 22.6626C68.9302 22.5776 69.0568 22.4648 69.158 22.3308C69.2593 22.1968 69.3331 22.0441 69.3753 21.8816C69.4176 21.719 69.4274 21.5497 69.4042 21.3834C69.381 21.217 69.3253 21.0569 69.2402 20.9121C69.1022 20.6795 65.8158 15.2439 58.4456 15.8061C58.2783 15.8192 58.1152 15.8651 57.9656 15.9412C57.8161 16.0173 57.683 16.1221 57.5739 16.2497C57.3537 16.5073 57.2449 16.8418 57.2713 17.1797C57.2977 17.5176 57.4573 17.8311 57.7149 18.0513C57.9725 18.2715 58.307 18.3804 58.6449 18.354ZM82.0282 55.6932C81.3996 55.6574 80.707 56.1557 80.6508 56.8611C80.6457 56.9071 80.2393 61.2541 75.7697 62.7235C75.4774 62.8153 75.228 63.0093 75.067 63.2699C74.906 63.5305 74.8442 63.8404 74.8929 64.1428C74.9416 64.4453 75.0976 64.7201 75.3322 64.917C75.5669 65.1139 75.8646 65.2197 76.1709 65.2152C76.3063 65.2152 76.4409 65.1936 76.5696 65.1513C82.6313 63.1631 83.1782 57.3211 83.1987 57.0732C83.2127 56.9057 83.1935 56.7371 83.1422 56.577C83.0909 56.4169 83.0085 56.2685 82.8998 56.1403C82.7911 56.0121 82.6581 55.9066 82.5086 55.8299C82.359 55.7532 82.1958 55.7067 82.0282 55.6932Z" fill="#EA596E"/>
<path d="M18.7757 43.2758C18.7254 43.4397 18.7087 43.6121 18.7264 43.7827C18.7442 43.9533 18.7961 44.1185 18.8791 44.2686C18.9621 44.4186 19.0744 44.5505 19.2094 44.6562C19.3444 44.762 19.4993 44.8395 19.6649 44.8841C19.8305 44.9287 20.0034 44.9395 20.1732 44.9159C20.3431 44.8923 20.5065 44.8347 20.6536 44.7467C20.8007 44.6586 20.9286 44.5418 21.0297 44.4033C21.1308 44.2647 21.2029 44.1072 21.2418 43.9402C21.4878 43.0548 22.06 42.2953 22.8432 41.8146C23.6265 41.3338 24.5627 41.1674 25.4636 41.3489C25.6279 41.3833 25.7973 41.385 25.9622 41.3539C26.1272 41.3228 26.2844 41.2596 26.4248 41.1677C26.5653 41.0759 26.6864 40.9573 26.781 40.8187C26.8756 40.68 26.9421 40.5242 26.9765 40.3599C27.0109 40.1956 27.0126 40.0262 26.9815 39.8612C26.9504 39.6963 26.8871 39.5391 26.7953 39.3986C26.7035 39.2581 26.5848 39.1371 26.4462 39.0425C26.3076 38.9478 26.1517 38.8814 25.9875 38.847C24.924 38.6308 23.8219 38.7067 22.7981 39.0668C19.8184 33.971 20.3985 28.9468 20.4061 28.8931C20.4512 28.5573 20.361 28.2173 20.1554 27.948C19.9498 27.6786 19.6456 27.502 19.3098 27.4569C18.9751 27.4138 18.6369 27.5041 18.3682 27.7083C18.0995 27.9125 17.9218 28.2141 17.8736 28.5481C17.8404 28.796 17.158 34.4668 20.5901 40.3394C19.7167 41.1243 19.0869 42.1435 18.7757 43.2758ZM47.3442 36.9635C47.8547 36.4999 48.5214 36.2463 49.2109 36.2534C49.9004 36.2605 50.5618 36.5278 51.0626 37.0019C51.3059 37.2377 51.633 37.3673 51.9718 37.362C52.3106 37.3567 52.6335 37.2171 52.8694 36.9738C53.1055 36.7308 53.2355 36.4039 53.2307 36.0651C53.226 35.7263 53.0868 35.4032 52.8438 35.167C52.2668 34.6175 51.5693 34.2106 50.807 33.9787C51.5635 31.3822 51.2645 30.2297 50.5617 28.0702C50.4227 27.6477 50.2889 27.2234 50.1605 26.7975L50.0838 26.542C49.1536 23.4549 48.5377 21.4181 50.3061 18.5431C50.4837 18.2544 50.5393 17.9069 50.4607 17.5772C50.3821 17.2475 50.1758 16.9625 49.887 16.7849C49.5983 16.6073 49.2508 16.5517 48.9211 16.6303C48.5914 16.7089 48.3064 16.9153 48.1288 17.204C45.7572 21.0578 46.6287 23.943 47.6381 27.2831L47.7148 27.5387C47.8647 28.0327 48.0036 28.4731 48.1314 28.8599C48.7626 30.8047 48.9542 31.4563 48.1825 33.8074C47.2163 33.98 46.3202 34.4272 45.6014 35.0954C45.3625 35.3287 45.2244 35.6461 45.2166 35.9799C45.2088 36.3137 45.3319 36.6373 45.5597 36.8814C45.7875 37.1255 46.1017 37.2708 46.4352 37.2861C46.7687 37.3015 47.095 37.1857 47.3442 36.9635ZM63.6104 29.3352C64.3693 29.3375 65.1191 29.1708 65.8056 28.8471C66.1123 28.7027 66.3491 28.4425 66.4638 28.1235C66.5786 27.8046 66.562 27.4531 66.4176 27.1464C66.2733 26.8397 66.013 26.6029 65.694 26.4881C65.3751 26.3733 65.0236 26.39 64.7169 26.5343C64.0889 26.8226 63.375 26.8624 62.7189 26.6457C62.0627 26.429 61.5129 25.972 61.18 25.3664C61.1041 25.2129 60.998 25.0762 60.8682 24.9645C60.7384 24.8527 60.5874 24.7682 60.4243 24.716C60.2611 24.6638 60.0891 24.6449 59.9186 24.6605C59.748 24.676 59.5823 24.7258 59.4313 24.8066C59.2803 24.8875 59.1471 24.998 59.0396 25.1314C58.9322 25.2648 58.8526 25.4184 58.8057 25.5831C58.7588 25.7479 58.7456 25.9204 58.7667 26.0904C58.7878 26.2604 58.8428 26.4244 58.9286 26.5727C59.3886 27.4313 60.0735 28.1085 60.8708 28.5788C59.4985 31.9138 60.2779 35.4558 60.9142 37.3341C60.9629 37.4989 61.0443 37.6523 61.1536 37.7849C61.2629 37.9175 61.3979 38.0268 61.5504 38.106C61.7029 38.1853 61.8698 38.233 62.0411 38.2463C62.2125 38.2595 62.3847 38.2381 62.5476 38.1832C62.7105 38.1283 62.8606 38.0412 62.989 37.9269C63.1174 37.8127 63.2215 37.6737 63.2949 37.5184C63.3684 37.363 63.4097 37.1944 63.4165 37.0226C63.4233 36.8509 63.3953 36.6796 63.3344 36.5189C62.905 35.2462 62.0719 32.0313 63.3292 29.2969C63.4264 29.302 63.5158 29.3352 63.6104 29.3352ZM75.8694 53.4315C75.8596 53.2637 75.8167 53.0995 75.743 52.9484C75.6693 52.7973 75.5664 52.6624 75.4402 52.5514C75.3139 52.4403 75.1669 52.3555 75.0077 52.3017C74.8484 52.2479 74.68 52.2263 74.5124 52.2381C73.8996 52.2804 73.2845 52.2013 72.7024 52.0053C72.1203 51.8093 71.5826 51.5002 71.1203 51.0958C70.658 50.6914 70.2801 50.1997 70.0083 49.6489C69.7366 49.098 69.5763 48.4989 69.5367 47.886C69.5073 47.5502 69.3491 47.2389 69.0951 47.0173C68.8411 46.7957 68.5112 46.6812 68.1746 46.6977C68.0071 46.709 67.8435 46.7533 67.6931 46.8279C67.5427 46.9025 67.4085 47.006 67.2982 47.1325C67.1878 47.259 67.1035 47.406 67.0499 47.5651C66.9964 47.7242 66.9748 47.8923 66.9862 48.0598C67.091 49.5675 67.666 50.9271 68.54 52.0337C66.4854 54.4512 63.7943 55.1387 62.2942 55.315C60.9679 55.4734 59.8077 55.338 58.466 55.1795C57.2368 55.039 55.8466 54.878 54.1267 54.9291L54.1139 54.9317C54.0628 54.2008 53.889 53.1351 53.3345 52.2483C53.1438 51.9857 52.8606 51.8053 52.542 51.7436C52.2234 51.6818 51.8933 51.7434 51.6183 51.9157C51.3434 52.0881 51.1441 52.3584 51.0609 52.6721C50.9777 52.9857 51.0166 53.3193 51.1699 53.6053C51.5124 54.1548 51.5762 55.0313 51.5762 55.4581C50.2882 55.9207 49.174 56.6004 48.1671 57.2572C46.368 58.4277 44.9497 59.3528 42.8158 58.8723C40.8838 58.4302 38.9492 58.3408 37.3086 58.5708C37.053 57.9293 36.6492 57.1627 36.0257 56.5723C35.7793 56.3395 35.4506 56.2141 35.1117 56.2237C34.7729 56.2333 34.4517 56.3771 34.2189 56.6234C33.9861 56.8698 33.8607 57.1986 33.8703 57.5374C33.8799 57.8762 34.0236 58.1974 34.27 58.4302C34.4898 58.6372 34.6636 58.9388 34.8041 59.2403C31.9854 60.4005 30.5721 62.3402 30.5057 62.4348C30.3701 62.6256 30.2897 62.85 30.2732 63.0835C30.2567 63.317 30.3048 63.5506 30.4122 63.7585C30.5197 63.9665 30.6823 64.1409 30.8822 64.2626C31.0821 64.3843 31.3117 64.4486 31.5458 64.4485C31.7478 64.4495 31.9472 64.4025 32.1276 64.3114C32.308 64.2203 32.4641 64.0878 32.5834 63.9247C32.5961 63.9042 33.9991 62.0259 36.7668 61.2669C38.1979 60.8733 40.25 60.9065 42.251 61.3614C42.8107 61.4892 43.3295 61.5327 43.8329 61.5403C44.0706 62.0974 44.1626 62.7593 44.1754 63.0047C44.1936 63.3305 44.3359 63.6371 44.5731 63.8614C44.8102 64.0857 45.1242 64.2107 45.4506 64.2109L45.5196 64.2083C45.8568 64.1905 46.1732 64.0399 46.3997 63.7894C46.6262 63.539 46.7444 63.2091 46.7284 62.8718C46.6862 62.2765 46.5747 61.6881 46.3961 61.1187C47.5742 60.6919 48.599 60.0249 49.5625 59.3988C51.0242 58.4455 52.4068 57.5434 54.2136 57.4847C55.7265 57.431 56.9736 57.5767 58.1772 57.7172C59.3886 57.8578 60.5795 57.9498 61.893 57.8731C62.1256 58.5197 62.1077 59.3834 62.0719 59.6722C62.0503 59.8521 62.067 60.0346 62.1208 60.2077C62.1747 60.3807 62.2646 60.5404 62.3845 60.6763C62.5044 60.8121 62.6517 60.9211 62.8168 60.996C62.9818 61.0709 63.1608 61.1101 63.342 61.111C63.6518 61.1105 63.9509 60.9975 64.1836 60.793C64.4163 60.5885 64.5667 60.3065 64.607 59.9993C64.6998 59.1612 64.6488 58.3133 64.4562 57.4923C66.7878 56.8737 68.8773 55.563 70.449 53.7331C71.7155 54.5168 73.1949 54.8857 74.681 54.7885C75.0183 54.7656 75.3328 54.6099 75.5555 54.3555C75.7782 54.1012 75.8911 53.7689 75.8694 53.4315Z" fill="#EA596E"/>
</svg>
