<svg width="82" height="69" viewBox="0 0 82 69" fill="none" xmlns="http://www.w3.org/2000/svg">
<path d="M77.6842 57.5V61.3333C77.6842 63.3667 76.7748 65.3167 75.1561 66.7545C73.5373 68.1923 71.3419 69 69.0526 69H8.63158C6.34234 69 4.14687 68.1923 2.52813 66.7545C0.909396 65.3167 0 63.3667 0 61.3333V7.66667C0 5.63334 0.909396 3.68329 2.52813 2.24551C4.14687 0.807735 6.34234 0 8.63158 0H69.0526C71.3419 0 73.5373 0.807735 75.1561 2.24551C76.7748 3.68329 77.6842 5.63334 77.6842 7.66667V11.5H38.8421C36.5529 11.5 34.3574 12.3077 32.7387 13.7455C31.1199 15.1833 30.2105 17.1333 30.2105 19.1667V49.8333C30.2105 51.8667 31.1199 53.8167 32.7387 55.2545C34.3574 56.6923 36.5529 57.5 38.8421 57.5M38.8421 49.8333H82V19.1667H38.8421M56.1053 40.25C54.3883 40.25 52.7417 39.6442 51.5277 38.5659C50.3136 37.4875 49.6316 36.025 49.6316 34.5C49.6316 32.975 50.3136 31.5125 51.5277 30.4341C52.7417 29.3558 54.3883 28.75 56.1053 28.75C57.8222 28.75 59.4688 29.3558 60.6828 30.4341C61.8969 31.5125 62.5789 32.975 62.5789 34.5C62.5789 36.025 61.8969 37.4875 60.6828 38.5659C59.4688 39.6442 57.8222 40.25 56.1053 40.25Z" fill="#4A1F94"/>
</svg>
